<svg xmlns="http://www.w3.org/2000/svg" viewBox="0 0 800 800" width="800" height="800">
<defs><linearGradient id="bg" x1="0" y1="0" x2="1" y2="1"><stop offset="0" stop-color="#0A3D91"/><stop offset="1" stop-color="#072a66"/></linearGradient></defs>
<rect width="800" height="800" fill="url(#bg)"/>
<circle cx="650" cy="120" r="180" fill="#ffffff" opacity="0.04"/>
<circle cx="90" cy="700" r="140" fill="#18B7D8" opacity="0.08"/>
<g stroke="rgba(255,255,255,.35)" stroke-width="2" stroke-dasharray="6 8" fill="none">
<path d="M60,300 Q300,180 500,280 T740,220"/>
<path d="M80,520 Q320,600 560,500 T760,600"/>
</g>
<circle cx="60" cy="300" r="6" fill="#18B7D8"/><circle cx="500" cy="280" r="6" fill="#F68B1F"/><circle cx="740" cy="220" r="6" fill="#18B7D8"/>
<circle cx="80" cy="520" r="6" fill="#F68B1F"/><circle cx="560" cy="500" r="6" fill="#18B7D8"/><circle cx="760" cy="600" r="6" fill="#F68B1F"/>
<!-- crates -->
<g transform="translate(220,420)">
<rect x="0" y="0" width="160" height="140" rx="6" fill="#F68B1F"/>
<rect x="14" y="14" width="132" height="112" rx="4" fill="none" stroke="#fff" stroke-width="3" opacity="0.5"/>
<rect x="190" y="40" width="120" height="100" rx="6" fill="#18B7D8"/>
<rect x="204" y="54" width="92" height="72" rx="4" fill="none" stroke="#fff" stroke-width="3" opacity="0.5"/>
<rect x="330" y="-20" width="140" height="160" rx="6" fill="#ffffff" opacity="0.92"/>
<rect x="344" y="-6" width="112" height="132" rx="4" fill="none" stroke="#0A3D91" stroke-width="3" opacity="0.35"/>
</g>
<!-- people silhouettes -->
<g fill="#ffffff" opacity="0.9">
<circle cx="300" cy="230" r="30"/><rect x="266" y="264" width="68" height="90" rx="20"/>
<circle cx="390" cy="215" r="26" opacity="0.7"/><rect x="360" y="245" width="60" height="80" rx="18" opacity="0.7"/>
</g>
</svg>
